<svg width="512" height="512" viewBox="0 0 512 512" fill="none" xmlns="http://www.w3.org/2000/svg">
<path d="M11 11H405C458.019 11 501 53.9807 501 107V405C501 458.019 458.019 501 405 501H107C53.9807 501 11 458.019 11 405V11Z" fill="white"/>
<path d="M189.875 441V330.531H212.219V374.75H228.625V330.531H250.969V441H228.625V394.906H212.219V441H189.875ZM275.344 441V350.844H257.219V330.531H315.344V350.844H297.531V441H275.344ZM321.594 441V330.531H343.938L360.656 385.531L377.688 330.531H400.031V441H377.688V383.031L366.438 421H354.875L343.938 383.5V441H321.594ZM411.438 441V330.531H433.781V421H460.656V441H411.438Z" fill="black"/>
</svg>
